<svg xmlns="http://www.w3.org/2000/svg" xmlns:xlink="http://www.w3.org/1999/xlink" width="1150px" height="740px"
  viewBox="-361 -28 1750 1126" preserveAspectRatio="xMidYMid meet">
  <defs id="svgEditorDefs">
    <path id="svgEditorClosePathDefs" style="stroke:black;stroke-width:1px;fill:white;" />
  </defs>
  <path d="M294,155l-109,248l45,96Z" style="fill:white;stroke:black;stroke-width:1px;" bekahsRainbowHover id="e6_pathH">
     </path>
  <path d="M272,313l-36,190l158-259Z" style="fill:white;stroke:black;stroke-width:1px;" bekahsRainbowHover id="e8_pathH" >
     </path>
  <path d="M300,157l-27,148l233-131Z" style="fill:white;stroke:black;stroke-width:1px;" bekahsRainbowHover id="e10_pathH" >
     </path>
  <path d="M404.19699999999995,239.814l108.99999999999994,-62l-182.99999999999994,183.49999999999997Z"
    style="fill:white;stroke:black;stroke-width:1px;" bekahsRainbowHover id="e16_pathH" >
     </path>
  <path d="M327.942,367.4549999999999l-62,101.5l101,42Z" style="fill:white;stroke:black;stroke-width:1px;" bekahsRainbowHover
    id="e20_pathH" >
     </path>
  <path d="M333.442,366.455l25.5,93.5l84.5,-204Z" style="fill:white;stroke:black;stroke-width:1px;" bekahsRainbowHover id="e22_pathH" >
     </path>
  <path d="M448.942,251.95500000000004l36,118l59.5,-214Z" style="fill:white;stroke:black;stroke-width:1px;" bekahsRainbowHover
    id="e24_pathH" >
     </path>
  <path d="M446.442,259.955l-59,154.5l115,42Z" style="fill:white;stroke:black;stroke-width:1px;" bekahsRainbowHover id="e26_pathH" >
     </path>
  <path d="M262.442,476.955l102,41.99999999999994l50,83Z" style="fill:white;stroke:black;stroke-width:1px;" bekahsRainbowHover
    id="e30_pathH" >
     </path>
  <path d="M370.942,517.455l53,88l95,9.5Z" style="fill:white;stroke:black;stroke-width:1px;" bekahsRainbowHover id="e36_pathH" >
     </path>
  <path d="M364.442,465.955l18.5,-45.5l-10,90.5Z" style="fill:white;stroke:black;stroke-width:1px;" bekahsRainbowHover id="e38_pathH" >
     </path>
  <path d="M390.942,423.955l-11,89l193.5-19.5Z" style="fill:white;stroke:black;stroke-width:1px;" bekahsRainbowHover id="e40_pathH" >
     </path>
  <path d="M390.942,520.455l175,-20l-132,49Z" style="fill:white;stroke:black;stroke-width:1px;" bekahsRainbowHover id="e42_pathH" >
     </path>
  <path d="M257.161,484.936l-85.5,134.5l197.5,-46.5Z" style="fill:white;stroke:black;stroke-width:1px;" bekahsRainbowHover
    id="e44_pathH" >
     </path>
  <path d="M441.161,554.436l124,85.5l88,-163.5Z" style="fill:white;stroke:black;stroke-width:1px;" bekahsRainbowHover id="e48_pathH" >
     </path>
  <path d="M232.688,508.296l-53,79.5l-125.5-168.5Z" style="fill:white;stroke:black;stroke-width:1px;" bekahsRainbowHover id="e50_pathH" >
     </path>
  <path d="M174.188,394.296l46.5,99.5l-162-80Z" style="fill:white;stroke:black;stroke-width:1px;" bekahsRainbowHover id="e52_pathH" >
     </path>
  <path d="M168.188,627.296l146,-33.5l-134.5,219Z" style="fill:white;stroke:black;stroke-width:1px;" bekahsRainbowHover id="e54_pathH" >
     </path>
  <path d="M371.06,578.888l-51,12l208.5,116.5Z" style="fill:white;stroke:black;stroke-width:1px;" bekahsRainbowHover id="e56_pathH" >
     </path>
  <path d="M486.76,378.94l23,77l88,37Z" style="fill:white;stroke:black;stroke-width:1px;" bekahsRainbowHover id="e58_pathH" >
     </path>
  <path d="M602.873,487.68l174,-166l96.5,63.5Z" style="fill:white;stroke:black;stroke-width:1px;" bekahsRainbowHover id="e64_pathH" >
     </path>
  <path d="M496.873,377.18l176.50000000000006,-95l-76.5,199.5Z" style="fill:white;stroke:black;stroke-width:1px;" bekahsRainbowHover
    id="e66_pathH" >
     </path>
  <path d="M605.873,474.18l60-156.5l4,96Z" style="fill:white;stroke:black;stroke-width:1px;" bekahsRainbowHover id="e68_pathH" >
     </path>
  <path d="M659.873,474.18l119.5,-43.5l200.5,82.00000000000006Z" style="fill:white;stroke:black;stroke-width:1px;" bekahsRainbowHover
    id="e70_pathH" >
     </path>
  <path d="M658.373,479.68l-12.5,235.50000000000006l219.5,-208.5Z" style="fill:white;stroke:black;stroke-width:1px;" bekahsRainbowHover
    id="e72_pathH" >
     </path>
  <path d="M653.373,486.68l-105.5,203.50000000000006l95,-42Z" style="fill:white;stroke:black;stroke-width:1px;" bekahsRainbowHover
    id="e74_pathH" >
     </path>
  <path d="M426.873,614.18l95.5,8l26,83Z" style="fill:white;stroke:black;stroke-width:1px;" bekahsRainbowHover id="e76_pathH" >
     </path>
  <path d="M561.873,646.18l-17,34.5l-17-57.5Z" style="fill:white;stroke:black;stroke-width:1px;" bekahsRainbowHover id="e78_pathH" >
     </path>
  <path d="M678.54,404.305l-8,-96l194,-82Z" style="fill:white;stroke:black;stroke-width:1px;" bekahsRainbowHover id="e84_pathH" >
     </path>
  <path d="M494.525,368.114l67,-242l46.5,182.5Z" style="fill:white;stroke:black;stroke-width:1px;" bekahsRainbowHover id="e92_pathH" >
     </path>
  <path d="M673.025,299.614l67.5,-146l86.5,78.5Z" style="fill:white;stroke:black;stroke-width:1px;" bekahsRainbowHover id="e94_pathH" >
     </path>
  <path d="M672.717,274.785l-59,30.5l-69.5,-275Z" style="fill:white;stroke:black;stroke-width:1px;" bekahsRainbowHover id="e98_pathH" >
     </path>
  <path d="M678.217,272.785l57,-121l-161.5,-78Z" style="fill:white;stroke:black;stroke-width:1px;" bekahsRainbowHover id="e100_pathH" >
     </path>
  <path d="M175.437,595.537l-280,-23.5l246.5,-26Z" style="fill:white;stroke:black;stroke-width:1px;" bekahsRainbowHover id="e106_pathH" >
     </path>
  <path d="M160.725,601.937l-248.5-22.5l261.5,248.5Z" style="fill:white;stroke:black;stroke-width:1px;" bekahsRainbowHover
    id="e114_pathH" >
     </path>
  <path d="M318.49,599.2l-39,69l159,267Z" style="fill:white;stroke:black;stroke-width:1px;" bekahsRainbowHover id="e116_pathH" >
     </path>
  <path d="M325.49,601.2l82,215l116-99Z" style="fill:white;stroke:black;stroke-width:1px;" bekahsRainbowHover id="e118_pathH" >
     </path>
  <path d="M641.49,655.2l-86,40l70,274Z" style="fill:white;stroke:black;stroke-width:1px;" bekahsRainbowHover id="e122_pathH" >
     </path>
  <path d="M275.49,675.2l-137,225l146,184Z" style="fill:white;stroke:black;stroke-width:1px;" bekahsRainbowHover id="e124_pathH" >
     </path>
  <path d="M411.49,825.2l38,113l91-226Z" style="fill:white;stroke:black;stroke-width:1px;" bekahsRainbowHover id="e130_pathH" >
     </path>
  <path d="M496.49,824.2l0,0l0,0Z" style="fill:white;stroke:black;stroke-width:1px;" bekahsRainbowHover id="e132_pathH" >
     </path>
  <path d="M550.49,712.2l-134,328l167-194Z" style="fill:white;stroke:black;stroke-width:1px;" bekahsRainbowHover id="e134_pathH" >
     </path>
  <path d="M281.49,689.2l8,289l54-184Z" style="fill:white;stroke:black;stroke-width:1px;" bekahsRainbowHover id="e140_pathH" >
     </path>
  <path d="M347.49,801.2l-58,200l118,42Z" style="fill:white;stroke:black;stroke-width:1px;" bekahsRainbowHover id="e142_pathH" >
     </path>
  <path d="M359.49,823.2l54,206l25-72Z" style="fill:white;stroke:black;stroke-width:1px;" bekahsRainbowHover id="e144_pathH" >
     </path>
  <path d="M270.49,1078.2l-164,-203l40,202Z" style="fill:white;stroke:black;stroke-width:1px;" bekahsRainbowHover id="e151_pathH" >
     </path>
  <path d="M167.49,833.2l-36,58l-102,-192Z" style="fill:white;stroke:black;stroke-width:1px;" bekahsRainbowHover id="e153_pathH" >
     </path>
  <path d="M290.49,1010.2l2,68l198,1Z" style="fill:white;stroke:black;stroke-width:1px;" bekahsRainbowHover id="e155_pathH" >
     </path>
  <path d="M138.49,1075.2l-44-226l-268-15Z" style="fill:white;stroke:black;stroke-width:1px;" bekahsRainbowHover id="e157_pathH" >
     </path>
  <path d="M92.49,841.2l-80-157l-6,152Z" style="fill:white;stroke:black;stroke-width:1px;" bekahsRainbowHover id="e161_pathH" >
     </path>
  <path d="M-2.51,835.2l-222-13l-94-286Z" style="fill:white;stroke:black;stroke-width:1px;" bekahsRainbowHover id="e163_pathH" >
     </path>
  <path d="M-314.51,578.2l2,347l139,89Z" style="fill:white;stroke:black;stroke-width:1px;" bekahsRainbowHover id="e165_pathH" >
     </path>
  <path d="M-312.51,937.2l1,141l214,0Z" style="fill:white;stroke:black;stroke-width:1px;" bekahsRainbowHover id="e167_pathH" >
     </path>
  <path d="M-164.51,1020.2l-60-189l43,2Z" style="fill:white;stroke:black;stroke-width:1px;" bekahsRainbowHover id="e169_pathH" >
     </path>
  <path d="M-159.51,1027.2l68,47l71-109Z" style="fill:white;stroke:black;stroke-width:1px;" bekahsRainbowHover id="e171_pathH" >
     </path>
  <path d="M-174.51,842.2l17,175l131-59Z" style="fill:white;stroke:black;stroke-width:1px;" bekahsRainbowHover id="e173_pathH" >
     </path>
  <path d="M-85.51,1078.2l72,-109l143,110Z" style="fill:white;stroke:black;stroke-width:1px;" bekahsRainbowHover id="e175_pathH" >
     </path>
  <path d="M-0.51,829.2l7-150l-111-104Z" style="fill:white;stroke:black;stroke-width:1px;" bekahsRainbowHover id="e177_pathH" >
     </path>
  <path d="M-14.51,816.2l-118-286l-29,143Z" style="fill:white;stroke:black;stroke-width:1px;" bekahsRainbowHover id="e179_pathH" >
     </path>
  <path d="M-166.51,667.2l-91-87l104,23Z" style="fill:white;stroke:black;stroke-width:1px;" bekahsRainbowHover id="e181_pathH" >
     </path>
  <path d="M51.49,429.2l-52,123l137-14Z" style="fill:white;stroke:black;stroke-width:1px;" bekahsRainbowHover id="e183_pathH" >
     </path>
  <path d="M497.49,1077.2l90-220l59,221Z" style="fill:white;stroke:black;stroke-width:1px;" bekahsRainbowHover id="e185_pathH" >
     </path>
  <path d="M422.49,1045.2l67,28l86-208Z" style="fill:white;stroke:black;stroke-width:1px;" bekahsRainbowHover id="e187_pathH" >
     </path>
  <path d="M-153.51,594.25l52-233l-175,207Z" style="fill:white;stroke:black;stroke-width:1px;" bekahsRainbowHover id="e189_pathH" >
     </path>
  <path d="M-8.51,553.25l-98,11l158-152Z" style="fill:white;stroke:black;stroke-width:1px;" bekahsRainbowHover id="e191_pathH" >
     </path>
  <path d="M-129.51,522.25l35-159l-18,198Z" style="fill:white;stroke:black;stroke-width:1px;" bekahsRainbowHover id="e195_pathH" >
     </path>
  <path d="M-100.51,542.25l133-124l-100-265Z" style="fill:white;stroke:black;stroke-width:1px;" bekahsRainbowHover id="e197_pathH" >
     </path>
  <path d="M-277.51,565.25l-37-33l2-306Z" style="fill:white;stroke:black;stroke-width:1px;" bekahsRainbowHover id="e199_pathH" >
     </path>
  <path d="M-270.51,544.25l-24-212l206-1Z" style="fill:white;stroke:black;stroke-width:1px;" bekahsRainbowHover id="e201_pathH" >
     </path>
  <path d="M38.49,411.25l-62-164l267,2Z" style="fill:white;stroke:black;stroke-width:1px;" bekahsRainbowHover id="e203_pathH" >
     </path>
  <path d="M55.49,407.25l184-147l-56,125Z" style="fill:white;stroke:black;stroke-width:1px;" bekahsRainbowHover id="e205_pathH" >
     </path>
  <path d="M-88.51,325.25l-37-61l51.51-101.25Z" style="fill:white;stroke:black;stroke-width:1px;" bekahsRainbowHover id="e207_pathH" >
     </path>
  <path d="M-98.18,322.13l-62-103l-148,8Z" style="fill:white;stroke:black;stroke-width:1px;" bekahsRainbowHover id="e211_pathH" >
     </path>
  <path d="M-305.18000000000006,237.13l11,90l169.00000000000006,-3Z" style="fill:white;stroke:black;stroke-width:1px;" bekahsRainbowHover
    id="e213_pathH" >
     </path>
  <path d="M-314.18,7.129999999999999l2,214l150,-8Z" style="fill:white;stroke:black;stroke-width:1px;" bekahsRainbowHover
    id="e221_pathH" >
     </path>
  <path d="M-307.18,8.13l111,1l-86,30Z" style="fill:white;stroke:black;stroke-width:1px;" bekahsRainbowHover id="e225_pathH" >
     </path>
  <path d="M-.3647,.3647l.3647-.3647l.3647,.3647Z" style="fill:white;stroke:black;stroke-width:1px;" bekahsRainbowHover id="e227_pathH" >
     </path>
  <path d="M-270.18,56.13l89,119l109-25Z" style="fill:white;stroke:black;stroke-width:1px;" bekahsRainbowHover id="e229_pathH" >
     </path>
  <path d="M-175.18,182.13l45,74l53,-97Z" style="fill:white;stroke:black;stroke-width:1px;" bekahsRainbowHover id="e231_pathH" >
     </path>
  <path d="M-59.18000000000001,156.13l177,84l-144,-1Z" style="fill:white;stroke:black;stroke-width:1px;" bekahsRainbowHover
    id="e233_pathH" >
     </path>
  <path d="M-189.28999999999996,8.14l299,2l-43,190Z" style="fill:white;stroke:black;stroke-width:1px;" bekahsRainbowHover
    id="e235_pathH" >
     </path>
  <path d="M-274.29,45.14l83-29l231,177Z" style="fill:white;stroke:black;stroke-width:1px;" bekahsRainbowHover id="e239_pathH" >
     </path>
  <path d="M75.71,207.14l56,31l-13-217Z" style="fill:white;stroke:black;stroke-width:1px;" bekahsRainbowHover id="e241_pathH" >
     </path>
  <path d="M143.71,236.14l103,2l73-154Z" style="fill:white;stroke:black;stroke-width:1px;" bekahsRainbowHover id="e243_pathH" >
     </path>
  <path d="M139.71,224.14l-10-162l260-53Z" style="fill:white;stroke:black;stroke-width:1px;" bekahsRainbowHover id="e245_pathH" >
     </path>
  <path d="M125.71,10.14l3,39l225-40Z" style="fill:white;stroke:black;stroke-width:1px;" bekahsRainbowHover id="e247_pathH" >
     </path>
  <path d="M400.89,8.36l165-1l-190,152Z" style="fill:white;stroke:black;stroke-width:1px;" bekahsRainbowHover id="e249_pathH" >
     </path>
  <path d="M300.89,148.36l71,7l25-144Z" style="fill:white;stroke:black;stroke-width:1px;" bekahsRainbowHover id="e251_pathH" >
     </path>
  <path d="M514.89,168.36l39-35l-16-93Z" style="fill:white;stroke:black;stroke-width:1px;" bekahsRainbowHover id="e255_pathH" >
     </path>
  <path d="M391.89,155.36l140-114l-25,124Z" style="fill:white;stroke:black;stroke-width:1px;" bekahsRainbowHover id="e257_pathH" >
     </path>
  <path d="M550.89,29.359999999999996l16,28.999999999999996l11,-48Z" style="fill:white;stroke:black;stroke-width:1px;" bekahsRainbowHover
    id="e259_pathH" >
     </path>
  <path d="M570.89,63.36l13-56l213,164Z" style="fill:white;stroke:black;stroke-width:1px;" bekahsRainbowHover id="e261_pathH" >
     </path>
  <path d="M598.89,8.36l267,3l286,205Z" style="fill:white;stroke:black;stroke-width:1px;" bekahsRainbowHover id="e263_pathH" >
     </path>
  <path d="M627.89,30.36l166,126l-13-68Z" style="fill:white;stroke:black;stroke-width:1px;" bekahsRainbowHover id="e265_pathH" >
     </path>
  <path d="M792.89,92.36l16,77l201,3Z" style="fill:white;stroke:black;stroke-width:1px;" bekahsRainbowHover id="e267_pathH" >
     </path>
  <path d="M782.89,183.36l52,44l88-45Z" style="fill:white;stroke:black;stroke-width:1px;" bekahsRainbowHover id="e269_pathH" >
     </path>
  <path d="M784.89,316.36l147-136l99,297Z" style="fill:white;stroke:black;stroke-width:1px;" bekahsRainbowHover id="e271_pathH" >
     </path>
  <path d="M790.89,426.36l90-35l226,162Z" style="fill:white;stroke:black;stroke-width:1px;" bekahsRainbowHover id="e273_pathH" >
     </path>
  <path d="M941.89,180.36l73,219l22-219Z" style="fill:white;stroke:black;stroke-width:1px;" bekahsRainbowHover id="e275_pathH" >
     </path>
  <path d="M876.97,10.690000000000001l196,1l-54,100Z" style="fill:white;stroke:black;stroke-width:1px;" bekahsRainbowHover
    id="e277_pathH" >
     </path>
  <path d="M1026.97,112.69l149,106l-95-207Z" style="fill:white;stroke:black;stroke-width:1px;" bekahsRainbowHover id="e279_pathH" >
     </path>
  <path d="M1090.97,11.69l218,1l-116,219Z" style="fill:white;stroke:black;stroke-width:1px;" bekahsRainbowHover id="e287_pathH" >
     </path>
  <path d="M1308.97,26.69l-1,160l-96,28Z" style="fill:white;stroke:black;stroke-width:1px;" bekahsRainbowHover id="e289_pathH" >
     </path>
  <path d="M1042.97,182.69l-23,240l166-186Z" style="fill:white;stroke:black;stroke-width:1px;" bekahsRainbowHover id="e291_pathH" >
     </path>
  <path d="M1203.97,229.69l-173,195l278,161Z" style="fill:white;stroke:black;stroke-width:1px;" bekahsRainbowHover id="e293_pathH" >
     </path>
  <path d="M1304.97,549.69l0-280l-94-42Z" style="fill:white;stroke:black;stroke-width:1px;" bekahsRainbowHover id="e295_pathH" >
     </path>
  <path d="M1213.97,219.69l93-26l0,69Z" style="fill:white;stroke:black;stroke-width:1px;" bekahsRainbowHover id="e299_pathH" >
     </path>
  <path d="M1031.8,438.6l17,60l161,41Z" style="fill:white;stroke:black;stroke-width:1px;" bekahsRainbowHover id="e301_pathH" >
     </path>
  <path d="M991.8,515.6l109,46l-37,295Z" style="fill:white;stroke:black;stroke-width:1px;" bekahsRainbowHover id="e303_pathH" >
     </path>
  <path d="M874.8,505.6l113,13l-188,57Z" style="fill:white;stroke:black;stroke-width:1px;" bekahsRainbowHover id="e305_pathH" >
     </path>
  <path d="M986.8,525.6l42,209l-187-165Z" style="fill:white;stroke:black;stroke-width:1px;" bekahsRainbowHover id="e307_pathH" >
     </path>
  <path d="M654.35,1078.14l144,1l-172,-101Z" style="fill:white;stroke:black;stroke-width:1px;" bekahsRainbowHover id="e309_pathH" >
     </path>
  <path d="M631.35,970.14l12-233l117,309Z" style="fill:white;stroke:black;stroke-width:1px;" bekahsRainbowHover id="e311_pathH" >
     </path>
  <path d="M769.35,1052.14l36,24l162-154Z" style="fill:white;stroke:black;stroke-width:1px;" bekahsRainbowHover id="e313_pathH" >
     </path>
  <path d="M813.35,1078.1400000000003l136,-129.00000000000023l255.9999999999999,129.00000000000023Z"
    style="fill:white;stroke:black;stroke-width:1px;" bekahsRainbowHover id="e315_pathH" >
     </path>
  <path d="M766.35,1045.14l94-62l-160-117Z" style="fill:white;stroke:black;stroke-width:1px;" bekahsRainbowHover id="e317_pathH" >
     </path>
  <path d="M954.35,943.14l97-98l44,170Z" style="fill:white;stroke:black;stroke-width:1px;" bekahsRainbowHover id="e319_pathH" >
     </path>
  <path d="M1211.35,1076.14l-114-61l212-119Z" style="fill:white;stroke:black;stroke-width:1px;" bekahsRainbowHover id="e321_pathH" >
     </path>
  <path d="M1218.35,1077.14l90,-1l1,-172Z" style="fill:white;stroke:black;stroke-width:1px;" bekahsRainbowHover id="e323_pathH" >
     </path>
  <path d="M645.35,726.14l153-145l-121,223Z" style="fill:white;stroke:black;stroke-width:1px;" bekahsRainbowHover id="e325_pathH" >
     </path>
  <path d="M680.35,808.14l19,50l78-45Z" style="fill:white;stroke:black;stroke-width:1px;" bekahsRainbowHover id="e327_pathH" >
     </path>
  <path d="M710.35,862.14l272-155l-113,270Z" style="fill:white;stroke:black;stroke-width:1px;" bekahsRainbowHover id="e329_pathH" >
     </path>
  <path d="M689.35,798.14l94-169l17,176Z" style="fill:white;stroke:black;stroke-width:1px;" bekahsRainbowHover id="e331_pathH" >
     </path>
  <path d="M808.35,794.14l-18-180l106,17Z" style="fill:white;stroke:black;stroke-width:1px;" bekahsRainbowHover id="e333_pathH" >
     </path>
  <path d="M834.35,572.14l-41,34l92,15Z" style="fill:white;stroke:black;stroke-width:1px;" bekahsRainbowHover id="e335_pathH" >
     </path>
  <path d="M828.35,782.14l76-145l72,64Z" style="fill:white;stroke:black;stroke-width:1px;" bekahsRainbowHover id="e337_pathH" >
     </path>
  <path d="M989.35,709.14l-104,254l164-130Z" style="fill:white;stroke:black;stroke-width:1px;" bekahsRainbowHover id="e339_pathH" >
     </path>
  <path d="M1090.35,522.14l138,30l-53,56Z" style="fill:white;stroke:black;stroke-width:1px;" bekahsRainbowHover id="e341_pathH" >
     </path>
  <path d="M1113.35,560.14l-28,205l150-89Z" style="fill:white;stroke:black;stroke-width:1px;" bekahsRainbowHover id="e343_pathH" >
     </path>
  <path d="M1101.35,1004.14l-38-141l208,46Z" style="fill:white;stroke:black;stroke-width:1px;" bekahsRainbowHover id="e345_pathH" >
     </path>
  <path d="M1311.35,594.14l-76-41l9,192Z" style="fill:white;stroke:black;stroke-width:1px;" bekahsRainbowHover id="e347_pathH" >
     </path>
  <path d="M1184.35,612.14l44-47l6,98Z" style="fill:white;stroke:black;stroke-width:1px;" bekahsRainbowHover id="e349_pathH" >
     </path>
  <path d="M1307.35,617.14l0,265l-117,4Z" style="fill:white;stroke:black;stroke-width:1px;" bekahsRainbowHover id="e351_pathH" >
     </path>
  <path d="M1074.35,854.14l10-78l101,101Z" style="fill:white;stroke:black;stroke-width:1px;" bekahsRainbowHover id="e353_pathH" >
     </path>
  <path d="M1098.35,773.14l136-83l-45,173Z" style="fill:white;stroke:black;stroke-width:1px;" bekahsRainbowHover id="e355_pathH" >
     </path>
</svg>